<mxfile host="app.diagrams.net" modified="2023-03-24T04:20:57.784Z" agent="5.0 (Windows NT 10.0; Win64; x64) AppleWebKit/537.36 (KHTML, like Gecko) Chrome/111.0.0.0 Safari/537.36" etag="UksiOXDICT18KRt39X0G" version="21.0.8" type="github">
  <diagram id="C5RBs43oDa-KdzZeNtuy" name="Page-1">
    <mxGraphModel dx="1803" dy="970" grid="1" gridSize="10" guides="1" tooltips="1" connect="1" arrows="1" fold="1" page="1" pageScale="1" pageWidth="900" pageHeight="1600" math="0" shadow="0">
      <root>
        <mxCell id="WIyWlLk6GJQsqaUBKTNV-0" />
        <mxCell id="WIyWlLk6GJQsqaUBKTNV-1" parent="WIyWlLk6GJQsqaUBKTNV-0" />
        <mxCell id="tjNmABrP8s-Yxd4kmEFi-45" value="" style="edgeStyle=orthogonalEdgeStyle;rounded=0;orthogonalLoop=1;jettySize=auto;html=1;fontSize=14;strokeWidth=1;exitX=0.5;exitY=1;exitDx=0;exitDy=0;exitPerimeter=0;" edge="1" parent="WIyWlLk6GJQsqaUBKTNV-1" source="tjNmABrP8s-Yxd4kmEFi-51" target="tjNmABrP8s-Yxd4kmEFi-47">
          <mxGeometry relative="1" as="geometry">
            <mxPoint x="320" y="150" as="sourcePoint" />
          </mxGeometry>
        </mxCell>
        <mxCell id="tjNmABrP8s-Yxd4kmEFi-46" value="" style="edgeStyle=orthogonalEdgeStyle;rounded=0;orthogonalLoop=1;jettySize=auto;html=1;fontSize=14;strokeWidth=1;" edge="1" parent="WIyWlLk6GJQsqaUBKTNV-1" source="tjNmABrP8s-Yxd4kmEFi-47" target="tjNmABrP8s-Yxd4kmEFi-55">
          <mxGeometry relative="1" as="geometry" />
        </mxCell>
        <mxCell id="tjNmABrP8s-Yxd4kmEFi-47" value="task 선택" style="whiteSpace=wrap;html=1;fontSize=14;shadow=0;strokeWidth=1;spacing=6;spacingTop=-4;" vertex="1" parent="WIyWlLk6GJQsqaUBKTNV-1">
          <mxGeometry x="260" y="240" width="120" height="60" as="geometry" />
        </mxCell>
        <mxCell id="tjNmABrP8s-Yxd4kmEFi-48" value="task 상태&lt;br style=&quot;font-size: 14px;&quot;&gt;&lt;b style=&quot;font-size: 14px;&quot;&gt;- stand by&lt;/b&gt; : task 대기 = 시작 가능 상태&lt;br style=&quot;font-size: 14px;&quot;&gt;&lt;b style=&quot;font-size: 14px;&quot;&gt;- ing&lt;/b&gt; : task 진행중 = 일시정지 가능상태&lt;br style=&quot;font-size: 14px;&quot;&gt;&lt;b style=&quot;font-size: 14px;&quot;&gt;- pause&lt;/b&gt; : task 일지정지 = 재개 가능 상태" style="text;html=1;strokeColor=none;fillColor=none;align=left;verticalAlign=middle;whiteSpace=wrap;rounded=0;fontSize=14;strokeWidth=1;" vertex="1" parent="WIyWlLk6GJQsqaUBKTNV-1">
          <mxGeometry x="620" y="360" width="280" height="100" as="geometry" />
        </mxCell>
        <mxCell id="tjNmABrP8s-Yxd4kmEFi-49" value="task 시작" style="shape=manualInput;whiteSpace=wrap;html=1;fontSize=14;strokeWidth=1;" vertex="1" parent="WIyWlLk6GJQsqaUBKTNV-1">
          <mxGeometry x="280" y="590" width="80" height="80" as="geometry" />
        </mxCell>
        <mxCell id="tjNmABrP8s-Yxd4kmEFi-50" value="" style="strokeWidth=1;html=1;shape=mxgraph.flowchart.annotation_2;align=left;labelPosition=right;pointerEvents=1;fontSize=14;" vertex="1" parent="WIyWlLk6GJQsqaUBKTNV-1">
          <mxGeometry x="590" y="360" width="50" height="100" as="geometry" />
        </mxCell>
        <mxCell id="tjNmABrP8s-Yxd4kmEFi-51" value="로그인" style="strokeWidth=1;html=1;shape=mxgraph.flowchart.terminator;whiteSpace=wrap;fontSize=14;" vertex="1" parent="WIyWlLk6GJQsqaUBKTNV-1">
          <mxGeometry x="270" y="110" width="100" height="60" as="geometry" />
        </mxCell>
        <mxCell id="tjNmABrP8s-Yxd4kmEFi-52" value="&#xa;&lt;span style=&quot;color: rgb(0, 0, 0); font-family: Helvetica; font-size: 14px; font-style: normal; font-variant-ligatures: normal; font-variant-caps: normal; font-weight: 400; letter-spacing: normal; orphans: 2; text-align: center; text-indent: 0px; text-transform: none; widows: 2; word-spacing: 0px; -webkit-text-stroke-width: 0px; background-color: rgb(255, 255, 255); text-decoration-thickness: initial; text-decoration-style: initial; text-decoration-color: initial; float: none; display: inline !important;&quot;&gt;stand by&lt;/span&gt;&#xa;&#xa;" style="edgeStyle=orthogonalEdgeStyle;rounded=0;orthogonalLoop=1;jettySize=auto;html=1;strokeWidth=1;" edge="1" parent="WIyWlLk6GJQsqaUBKTNV-1" source="tjNmABrP8s-Yxd4kmEFi-55" target="tjNmABrP8s-Yxd4kmEFi-49">
          <mxGeometry relative="1" as="geometry" />
        </mxCell>
        <mxCell id="tjNmABrP8s-Yxd4kmEFi-53" value="ing" style="edgeStyle=orthogonalEdgeStyle;rounded=0;orthogonalLoop=1;jettySize=auto;html=1;exitX=0;exitY=0.5;exitDx=0;exitDy=0;entryX=0.475;entryY=0.15;entryDx=0;entryDy=0;entryPerimeter=0;strokeWidth=1;" edge="1" parent="WIyWlLk6GJQsqaUBKTNV-1" source="tjNmABrP8s-Yxd4kmEFi-55" target="tjNmABrP8s-Yxd4kmEFi-57">
          <mxGeometry relative="1" as="geometry" />
        </mxCell>
        <mxCell id="tjNmABrP8s-Yxd4kmEFi-54" value="pause" style="edgeStyle=orthogonalEdgeStyle;rounded=0;orthogonalLoop=1;jettySize=auto;html=1;exitX=1;exitY=0.5;exitDx=0;exitDy=0;entryX=0.488;entryY=0.188;entryDx=0;entryDy=0;entryPerimeter=0;strokeWidth=1;" edge="1" parent="WIyWlLk6GJQsqaUBKTNV-1" source="tjNmABrP8s-Yxd4kmEFi-55" target="tjNmABrP8s-Yxd4kmEFi-58">
          <mxGeometry relative="1" as="geometry" />
        </mxCell>
        <mxCell id="tjNmABrP8s-Yxd4kmEFi-55" value="task 상태" style="whiteSpace=wrap;html=1;fontSize=14;shadow=0;strokeWidth=1;spacing=6;spacingTop=-4;" vertex="1" parent="WIyWlLk6GJQsqaUBKTNV-1">
          <mxGeometry x="260" y="380" width="120" height="60" as="geometry" />
        </mxCell>
        <mxCell id="tjNmABrP8s-Yxd4kmEFi-56" value="" style="edgeStyle=orthogonalEdgeStyle;rounded=0;orthogonalLoop=1;jettySize=auto;html=1;strokeWidth=1;" edge="1" parent="WIyWlLk6GJQsqaUBKTNV-1" source="tjNmABrP8s-Yxd4kmEFi-57" target="tjNmABrP8s-Yxd4kmEFi-59">
          <mxGeometry relative="1" as="geometry" />
        </mxCell>
        <mxCell id="tjNmABrP8s-Yxd4kmEFi-57" value="task 일시정지" style="shape=manualInput;whiteSpace=wrap;html=1;fontSize=14;strokeWidth=1;" vertex="1" parent="WIyWlLk6GJQsqaUBKTNV-1">
          <mxGeometry x="90" y="590" width="90" height="80" as="geometry" />
        </mxCell>
        <mxCell id="tjNmABrP8s-Yxd4kmEFi-58" value="task 재개" style="shape=manualInput;whiteSpace=wrap;html=1;fontSize=14;strokeWidth=1;" vertex="1" parent="WIyWlLk6GJQsqaUBKTNV-1">
          <mxGeometry x="460" y="590" width="80" height="80" as="geometry" />
        </mxCell>
        <mxCell id="tjNmABrP8s-Yxd4kmEFi-59" value="task 진행중 상태" style="strokeWidth=1;html=1;shape=mxgraph.flowchart.terminator;whiteSpace=wrap;fontSize=14;" vertex="1" parent="WIyWlLk6GJQsqaUBKTNV-1">
          <mxGeometry x="70" y="740" width="130" height="60" as="geometry" />
        </mxCell>
      </root>
    </mxGraphModel>
  </diagram>
</mxfile>
